<?xml version="1.0" standalone="no"?>
<!DOCTYPE svg PUBLIC "-//W3C//DTD SVG 20010904//EN"
 "http://www.w3.org/TR/2001/REC-SVG-20010904/DTD/svg10.dtd">
<svg version="1.0" xmlns="http://www.w3.org/2000/svg"
 width="600.000000pt" height="600.000000pt" viewBox="0 0 600.000000 600.000000"
 preserveAspectRatio="xMidYMid meet">
<metadata>
Created by potrace 1.14, written by Peter Selinger 2001-2017
</metadata>
<g transform="translate(0.000000,600.000000) scale(0.100000,-0.100000)"
fill="#000000" stroke="none">
<path d="M2788 5996 c-1 -2 -37 -6 -78 -10 -74 -6 -241 -30 -290 -41 -14 -3
-36 -8 -50 -11 -296 -57 -678 -212 -967 -394 -81 -51 -264 -180 -283 -200 -3
-3 -36 -32 -75 -65 -117 -99 -298 -285 -375 -385 -19 -25 -39 -50 -45 -57 -5
-7 -15 -18 -21 -26 -32 -39 -148 -213 -197 -297 -165 -284 -303 -651 -353
-940 -4 -25 -8 -47 -9 -50 -1 -3 -4 -27 -8 -55 -4 -27 -10 -66 -13 -85 -14
-93 -18 -182 -18 -380 0 -219 8 -344 30 -470 3 -14 9 -47 14 -75 103 -589 398
-1146 840 -1585 387 -385 866 -655 1385 -780 266 -65 405 -82 680 -84 199 -1
417 8 435 19 3 1 31 6 63 9 32 4 64 9 70 11 7 2 30 7 52 10 56 8 223 50 330
84 837 262 1538 907 1870 1720 82 201 159 467 181 621 2 19 7 44 9 55 2 11 7
47 10 80 4 33 10 89 15 125 8 70 5 499 -4 565 -3 22 -8 60 -11 85 -9 66 -36
223 -48 275 -26 111 -86 314 -106 360 -5 11 -26 63 -46 115 -231 581 -689
1111 -1248 1442 -112 66 -324 172 -404 202 -106 39 -189 68 -198 71 -5 1 -17
5 -25 8 -22 9 -230 64 -270 71 -19 3 -46 9 -60 12 -14 3 -68 12 -120 19 -52 8
-113 17 -135 20 -42 6 -521 16 -527 11z"/>
</g>
</svg>
